<svg width="18" height="18" viewBox="0 0 18 18" fill="none" xmlns="http://www.w3.org/2000/svg">
<mask id="mask0_2520_6701" style="mask-type:alpha" maskUnits="userSpaceOnUse" x="0" y="0" width="18" height="18">
<rect width="18" height="18" fill="#D9D9D9"/>
</mask>
<g mask="url(#mask0_2520_6701)">
<path d="M6.30342 12.75L9.00342 10.05L11.7034 12.75L12.7534 11.7L10.0534 9L12.7534 6.3L11.7034 5.25L9.00342 7.95L6.30342 5.25L5.25342 6.3L7.95342 9L5.25342 11.7L6.30342 12.75ZM9.00342 16.5C7.96592 16.5 6.99092 16.3031 6.07842 15.9094C5.16592 15.5156 4.37217 14.9812 3.69717 14.3062C3.02217 13.6312 2.48779 12.8375 2.09404 11.925C1.70029 11.0125 1.50342 10.0375 1.50342 9C1.50342 7.9625 1.70029 6.9875 2.09404 6.075C2.48779 5.1625 3.02217 4.36875 3.69717 3.69375C4.37217 3.01875 5.16592 2.48437 6.07842 2.09062C6.99092 1.69687 7.96592 1.5 9.00342 1.5C10.0409 1.5 11.0159 1.69687 11.9284 2.09062C12.8409 2.48437 13.6347 3.01875 14.3097 3.69375C14.9847 4.36875 15.519 5.1625 15.9128 6.075C16.3065 6.9875 16.5034 7.9625 16.5034 9C16.5034 10.0375 16.3065 11.0125 15.9128 11.925C15.519 12.8375 14.9847 13.6312 14.3097 14.3062C13.6347 14.9812 12.8409 15.5156 11.9284 15.9094C11.0159 16.3031 10.0409 16.5 9.00342 16.5Z" fill="#EB5D6E"/>
</g>
</svg>
