<svg width="18" height="18" viewBox="0 0 18 18" fill="none" xmlns="http://www.w3.org/2000/svg">
<path d="M9.00288 1.68799C4.97003 1.68799 1.68896 4.96905 1.68896 9.0019C1.68896 13.0348 4.97003 16.3158 9.00288 16.3158C13.0357 16.3158 16.3168 13.0348 16.3168 9.0019C16.3168 4.96905 13.0357 1.68799 9.00288 1.68799ZM12.8093 6.55069L8.08337 12.1768C8.03153 12.2385 7.96702 12.2884 7.89422 12.323C7.82142 12.3577 7.74202 12.3763 7.66141 12.3776H7.65192C7.57306 12.3775 7.49509 12.3609 7.42306 12.3288C7.35104 12.2967 7.28656 12.2498 7.23383 12.1912L5.20844 9.94076C5.157 9.8862 5.11698 9.82191 5.09075 9.75167C5.06451 9.68143 5.05258 9.60665 5.05565 9.53173C5.05873 9.45682 5.07675 9.38327 5.10865 9.31541C5.14056 9.24756 5.18571 9.18676 5.24144 9.13661C5.29718 9.08645 5.36238 9.04794 5.43321 9.02334C5.50404 8.99874 5.57908 8.98855 5.6539 8.99336C5.72873 8.99817 5.80184 9.01789 5.86894 9.05137C5.93603 9.08484 5.99576 9.13138 6.04461 9.18827L7.63715 10.9577L11.9478 5.82703C12.0445 5.71524 12.1813 5.64599 12.3286 5.63425C12.476 5.62251 12.622 5.66922 12.7352 5.76429C12.8484 5.85936 12.9196 5.99514 12.9334 6.1423C12.9473 6.28945 12.9027 6.43615 12.8093 6.55069Z" fill="#2DA771"/>
</svg>
