<svg width="64" height="64" viewBox="0 0 64 64" fill="none" xmlns="http://www.w3.org/2000/svg">
<g clip-path="url(#clip0_305_1744)">
<mask id="mask0_305_1744" style="mask-type:luminance" maskUnits="userSpaceOnUse" x="0" y="0" width="64" height="64">
<path d="M0 3.8147e-06H64V64H0V3.8147e-06Z" fill="white"/>
</mask>
<g mask="url(#mask0_305_1744)">
<path d="M23.7561 63.0625H19.8787C13.484 63.0625 8.25171 57.8304 8.25171 51.4355V40.402C8.25171 39.577 8.92683 38.902 9.75171 38.902H33.8831C34.708 38.902 35.3831 39.577 35.3831 40.402V51.4355C35.3831 57.8304 30.151 63.0625 23.7561 63.0625Z" fill="#FFC400"/>
<path d="M33.8829 38.902H30.1329C30.9579 38.902 31.6329 39.577 31.6329 40.402V51.4356C31.6329 57.8304 26.4007 63.0625 20.0059 63.0625H23.7559C30.1507 63.0625 35.3829 57.8304 35.3829 51.4356V40.402C35.3829 39.577 34.7079 38.902 33.8829 38.902Z" fill="#FF9800"/>
<path d="M10.1875 46.0986H5.4375C2.95225 46.0986 0.9375 44.084 0.9375 41.5986V28.6143C0.9375 24.4635 4.30237 21.0986 8.45312 21.0986C11.8962 21.0986 14.6875 23.8899 14.6875 27.333V41.5986C14.6875 44.084 12.6727 46.0986 10.1875 46.0986Z" fill="#FFAB00"/>
<path d="M33.4375 46.0986H38.1875C40.6727 46.0986 42.6875 44.084 42.6875 41.5986V28.6143C42.6875 24.4635 39.3226 21.0986 35.1719 21.0986C31.7287 21.0986 28.9375 23.8899 28.9375 27.333V41.5986C28.9375 44.084 30.9522 46.0986 33.4375 46.0986Z" fill="#FFAB00"/>
<path d="M35.1719 21.0986C34.551 21.0986 33.9519 21.1906 33.386 21.3596C36.5839 22.2234 38.9375 25.1433 38.9375 28.6143V41.5986C38.9375 44.084 36.9227 46.0986 34.4375 46.0986H38.1875C40.6727 46.0986 42.6875 44.084 42.6875 41.5986V28.6143C42.6875 24.4635 39.3226 21.0986 35.1719 21.0986Z" fill="#FF9800"/>
<path d="M38.1291 40.5943C38.1994 46.4399 33.3437 51.2234 27.4977 51.2234H16.1541C10.3674 51.2234 5.55668 46.6049 5.50531 40.8185C5.48281 38.2891 6.35955 35.8804 7.95818 33.977C8.84968 32.9155 9.3173 31.562 9.3173 30.1759V24.5046C9.3173 19.793 13.1369 15.9734 17.8486 15.9734H25.7861C30.4978 15.9734 34.3173 19.793 34.3173 24.5046V30.1753C34.3173 31.5944 34.8354 32.9553 35.7379 34.0505C37.2069 35.8339 38.0992 38.1101 38.1291 40.5943Z" fill="#E6CABD"/>
<path d="M35.738 34.0508C34.8356 32.9554 34.3174 31.5946 34.3174 30.1755V24.5049C34.3174 19.7931 30.4979 15.9736 25.7861 15.9736H22.0361C26.7479 15.9736 30.5674 19.7931 30.5674 24.5049V30.1755C30.5674 31.5946 31.0856 32.9554 31.988 34.0508C33.457 35.8341 34.3493 38.1104 34.3791 40.5945C34.4495 46.44 29.5938 51.2236 23.7478 51.2236H27.4978C33.3438 51.2236 38.1995 46.44 38.1291 40.5945C38.0993 38.1104 37.207 35.8341 35.738 34.0508Z" fill="#D9A990"/>
<path d="M34.3173 29.4592V24.5049C34.3173 19.7932 30.4978 15.9736 25.786 15.9736H21.8173C21.8173 15.9736 17.6923 29.4592 34.3173 29.4592Z" fill="#FFC400"/>
<path d="M25.7861 15.9735H22.0361C26.7478 15.9735 30.5674 19.7931 30.5674 24.5049V29.1914C31.6821 29.3642 32.9268 29.459 34.3174 29.459V24.5049C34.3174 19.7931 30.4978 15.9735 25.7861 15.9735Z" fill="#FFAB00"/>
<path d="M21.8174 38.9736C19.4111 38.9736 17.4424 37.0049 17.4424 34.5986C17.4424 32.1924 19.4111 30.2236 21.8174 30.2236C24.2236 30.2236 26.1924 32.1924 26.1924 34.5986C26.1924 37.0049 24.2236 38.9736 21.8174 38.9736Z" fill="#633E31"/>
<path d="M21.8174 30.2236C21.1474 30.2236 20.5115 30.3768 19.9424 30.6489C21.4171 31.3544 22.4424 32.8624 22.4424 34.5986C22.4424 36.335 21.4171 37.843 19.9424 38.5485C20.5115 38.8206 21.1474 38.9736 21.8174 38.9736C24.2236 38.9736 26.1924 37.0049 26.1924 34.5986C26.1924 32.1924 24.2236 30.2236 21.8174 30.2236Z" fill="#59382C"/>
<path d="M17.3174 63.0625H6.31738C4.93663 63.0625 3.81738 61.9432 3.81738 60.5625C3.81738 57.801 6.05601 55.5625 8.81738 55.5625H14.8174C17.5788 55.5625 19.8174 57.801 19.8174 60.5625C19.8174 61.9432 18.698 63.0625 17.3174 63.0625Z" fill="#E6CABD"/>
<path d="M14.8174 55.5625H11.0674C13.8288 55.5625 16.0674 57.801 16.0674 60.5625C16.0674 61.9432 14.948 63.0625 13.5674 63.0625H17.3174C18.698 63.0625 19.8174 61.9432 19.8174 60.5625C19.8174 57.801 17.5788 55.5625 14.8174 55.5625Z" fill="#D9A990"/>
<path d="M37.3174 63.0625H26.3174C24.9368 63.0625 23.8174 61.9432 23.8174 60.5625C23.8174 57.801 26.056 55.5625 28.8174 55.5625H34.8174C37.5789 55.5625 39.8174 57.801 39.8174 60.5625C39.8174 61.9432 38.6981 63.0625 37.3174 63.0625Z" fill="#E6CABD"/>
<path d="M34.8171 55.5625H31.0671C33.8286 55.5625 36.0671 57.801 36.0671 60.5625C36.0671 61.9432 34.9479 63.0625 33.5671 63.0625H37.3171C38.6979 63.0625 39.8171 61.9432 39.8171 60.5625C39.8171 57.801 37.5786 55.5625 34.8171 55.5625Z" fill="#D9A990"/>
<path d="M54.0616 2.9996C56.6768 5.42185 57.2436 9.17672 55.7602 12.1763L62.9161 19.3322C63.1113 19.5275 63.1113 19.8441 62.9161 20.0392L60.0877 22.8677C59.8923 23.063 59.5758 23.063 59.3806 22.8677L52.2247 15.7118C50.4816 16.5746 48.4813 16.7451 46.6368 16.221L41.3058 21.5518L36.0024 16.2485L41.2998 10.9512C40.4811 8.1956 41.2161 5.07585 43.5079 2.97297C46.4776 0.248222 51.1049 0.260849 54.0616 2.9996Z" fill="#FF7043"/>
<path d="M62.916 19.3322L55.7601 12.1763C57.2435 9.17672 56.6768 5.42185 54.0615 2.9996C52.0871 1.17072 49.3683 0.559347 46.895 1.1651C48.138 1.46972 49.3191 2.08022 50.3115 2.9996C52.9268 5.42185 53.4935 9.17672 52.0101 12.1763L59.0911 19.2572C59.3278 19.494 59.3278 19.8776 59.0911 20.1142L57.8591 21.3462L59.3805 22.8677C59.5758 23.063 59.8924 23.063 60.0876 22.8677L62.916 20.0392C63.1113 19.8441 63.1113 19.5275 62.916 19.3322Z" fill="#FF5722"/>
<path d="M51.5625 5.93171C53.1041 7.47334 53.1041 9.97296 51.5625 11.5146C50.0207 13.0563 47.5212 13.0563 45.9795 11.5146C44.4378 9.97296 44.4378 7.47334 45.9795 5.93171C47.5212 4.38996 50.0207 4.38996 51.5625 5.93171Z" fill="#26C6DA"/>
<path d="M62.9159 20.0393L60.0875 22.8678C59.8923 23.0629 59.5756 23.0629 59.3804 22.8678L53.8484 17.3358L57.3839 13.8003L62.9159 19.3323C63.1111 19.5274 63.1111 19.8441 62.9159 20.0393Z" fill="#546E7A"/>
<path d="M62.916 19.3324L57.384 13.8004L55.509 15.6754L59.166 19.3324C59.3614 19.5276 59.3614 19.8442 59.166 20.0394L57.8592 21.3464L59.3805 22.8679C59.5758 23.0632 59.8924 23.0632 60.0877 22.8679L62.916 20.0394C63.1113 19.8442 63.1113 19.5276 62.916 19.3324Z" fill="#455A64"/>
<path d="M41.4098 22.2658L39.3683 24.3075C39.1998 24.476 38.9266 24.476 38.7581 24.3075L33.2873 18.8365C33.1188 18.6681 33.1188 18.395 33.2873 18.2265L35.3289 16.185C35.4973 16.0165 35.7705 16.0165 35.9389 16.185L41.4098 21.6557C41.5783 21.8242 41.5783 22.0973 41.4098 22.2658Z" fill="#26C6DA"/>
<path d="M21.8174 38.9736V43.0986" stroke="#59382C" stroke-width="1.875" stroke-miterlimit="10" stroke-linecap="round" stroke-linejoin="round"/>
<path d="M9.44238 39.3486C9.44238 41.4196 11.1215 43.0986 13.1928 43.0986H30.442C32.5133 43.0986 34.1924 41.4196 34.1924 39.3486" stroke="#59382C" stroke-width="1.875" stroke-miterlimit="10" stroke-linecap="round" stroke-linejoin="round"/>
<path d="M8.94238 63.0625V60.3125" stroke="#59382C" stroke-width="1.875" stroke-miterlimit="10" stroke-linecap="round" stroke-linejoin="round"/>
<path d="M14.6924 63.0625V60.3125" stroke="#59382C" stroke-width="1.875" stroke-miterlimit="10" stroke-linecap="round" stroke-linejoin="round"/>
<path d="M28.9424 63.0625V60.3125" stroke="#59382C" stroke-width="1.875" stroke-miterlimit="10" stroke-linecap="round" stroke-linejoin="round"/>
<path d="M34.6924 63.0625V60.3125" stroke="#59382C" stroke-width="1.875" stroke-miterlimit="10" stroke-linecap="round" stroke-linejoin="round"/>
<path d="M31.1505 13.4585L30.2324 7.40725" stroke="#26C6DA" stroke-width="1.875" stroke-miterlimit="10" stroke-linecap="round" stroke-linejoin="round"/>
<path d="M45.1672 26.0772L51.9612 26.6377" stroke="#26C6DA" stroke-width="1.875" stroke-miterlimit="10" stroke-linecap="round" stroke-linejoin="round"/>
<path d="M24.4326 11.9768L20.2461 5.45856" stroke="#26C6DA" stroke-width="1.875" stroke-miterlimit="10" stroke-linecap="round" stroke-linejoin="round"/>
<path d="M46.4841 31.6635L56.6893 34.125" stroke="#26C6DA" stroke-width="1.875" stroke-miterlimit="10" stroke-linecap="round" stroke-linejoin="round"/>
<path d="M13.7368 24.6245C13.7368 24.6245 15.7881 23.4276 18.2239 24.3266" stroke="black" stroke-width="1.875" stroke-miterlimit="10" stroke-linecap="round" stroke-linejoin="round"/>
<path d="M30.942 24.6245C30.942 24.6245 28.8907 23.4276 26.4548 24.3266" stroke="black" stroke-width="1.875" stroke-miterlimit="10" stroke-linecap="round" stroke-linejoin="round"/>
</g>
</g>
<defs>
<clipPath id="clip0_305_1744">
<rect width="64" height="64" fill="white"/>
</clipPath>
</defs>
</svg>
