<svg width="64" height="64" viewBox="0 0 64 64" fill="none" xmlns="http://www.w3.org/2000/svg">
<path d="M33.8566 9.83206C33.7328 9.83206 33.6076 9.81659 33.4824 9.78424C32.8846 9.63162 32.4634 9.14142 32.3698 8.56964C32.277 9.11681 31.8852 9.59153 31.3177 9.76173C30.5209 10.0001 29.6818 9.54933 29.442 8.7525L28.5791 5.88164C28.3526 5.13474 28.4933 4.3154 28.9553 3.69298C29.3956 3.0994 30.0651 2.7583 30.7902 2.7583H33.8228C34.5268 2.7583 35.1844 3.08322 35.6254 3.65008C36.0867 4.24437 36.2506 5.0398 36.0628 5.77966L35.3152 8.69975C35.1401 9.37984 34.5275 9.83206 33.8566 9.83206ZM32.3698 7.89453C32.3698 8.07733 32.3716 7.75767 32.3698 8.07733C32.3711 7.79297 32.3698 8.07733 32.3698 7.89453Z" fill="#5F4B56"/>
<path d="M22.5728 39.2192L22.7837 39.3989L28.0728 43.9165C28.738 44.3796 29.9333 44.8714 31.228 45.2505C32.5291 45.6314 33.8021 45.8628 34.564 45.8628C36.7564 45.8628 38.8808 44.9362 40.3862 43.3208C41.0084 42.6532 41.5815 42.0603 42.0278 41.6069C42.9264 40.689 43.9365 40.0036 45.0327 39.5815V39.5806C46.0113 39.2025 47.0334 39.0493 47.8198 39.48L47.8208 39.479C48.2743 39.7266 48.5163 40.1007 48.6372 40.3521L48.855 40.8042L48.519 41.1782L45.2974 44.7651L45.2964 44.7642C44.3378 45.8326 43.6353 47.1359 43.269 48.5288C42.9091 49.9022 43.0968 51.3345 43.8003 52.5688L44.0181 52.9507L44.3589 53.5464L43.7954 53.938L36.0151 59.3501L35.5347 59.6841L35.0933 59.2993L33.0952 57.5562L33.0825 57.5454L33.0708 57.5337L24.3208 49.188L24.2886 49.1567L24.2603 49.1226L24.2593 49.1216C24.2587 49.1208 24.2575 49.1191 24.2563 49.1177C24.2539 49.1147 24.2501 49.1105 24.2456 49.105C24.236 49.0934 24.2222 49.0758 24.2036 49.0532C24.1661 49.0078 24.1106 48.941 24.0396 48.855C23.8974 48.6828 23.6919 48.434 23.439 48.1274C22.9329 47.5142 22.2356 46.67 21.4731 45.7456C19.9483 43.897 18.1606 41.7266 17.1079 40.4448L16.1001 39.2192H22.5728Z" fill="#F3DBD2" stroke="#F3DBD2" stroke-width="1.5"/>
<path d="M57.3607 34.5194C57.4535 32.7752 57.3263 30.384 57.3248 30.358C56.0259 17.5545 45.335 7.88062 32.457 7.88062C19.5198 7.88062 8.82339 17.6037 7.57715 30.4965C7.57715 30.4965 7.54761 32.444 7.57645 34.5194H57.3607Z" fill="#BAA1B6"/>
<path d="M6.32178 35.6362C6.59184 37.455 8.16512 38.8545 10.0584 38.8545H46.634H46.6495H54.857C56.7489 38.8545 58.3214 37.455 58.5922 35.6362H6.32178Z" fill="#806875"/>
<path d="M62.4533 36.5844H1.55065C0.718651 36.5844 0.0441895 35.9099 0.0441895 35.0772C0.0441895 34.2445 0.718651 33.5701 1.55065 33.5701H62.4533C63.2846 33.5701 63.9591 34.2445 63.9591 35.0772C63.9591 35.9099 63.2839 36.5844 62.4533 36.5844Z" fill="#5F4B56"/>
<path d="M49.7208 26.6299C49.0787 26.6299 48.4844 26.2171 48.284 25.5714C45.9392 18.0448 39.2206 15.8498 39.1524 15.828C38.3598 15.5783 37.9188 14.7322 38.1699 13.9389C38.4188 13.1463 39.2635 12.7039 40.0582 12.9557C40.3951 13.0619 48.3522 15.662 51.1598 24.6761C51.408 25.4702 50.9642 26.3148 50.1702 26.5617C50.0204 26.6081 49.8692 26.6299 49.7208 26.6299Z" fill="white"/>
<path d="M50.4382 31.27C51.3436 31.27 52.0776 30.536 52.0776 29.6306C52.0776 28.7252 51.3436 27.9912 50.4382 27.9912C49.5328 27.9912 48.7988 28.7252 48.7988 29.6306C48.7988 30.536 49.5328 31.27 50.4382 31.27Z" fill="white"/>
</svg>
