<svg width="64" height="64" viewBox="0 0 64 64" fill="none" xmlns="http://www.w3.org/2000/svg">
<mask id="mask0_305_1479" style="mask-type:luminance" maskUnits="userSpaceOnUse" x="0" y="0" width="64" height="64">
<path d="M0 3.8147e-06H64V64H0V3.8147e-06Z" fill="white"/>
</mask>
<g mask="url(#mask0_305_1479)">
<path d="M47.1411 53.3604L48.451 53.5914C49.4741 53.7718 50.5278 53.567 51.409 53.0168L56.4607 49.8615C58.4831 48.5985 59.8743 46.5364 60.2885 44.1881L62.2852 32.8639L51.1028 30.8921L39.9205 28.9204L37.9237 40.2446C37.5097 42.5929 38.1117 45.0065 39.5801 46.885L43.2481 51.5778C43.888 52.3963 44.8081 52.949 45.8312 53.1294L47.1411 53.3604Z" fill="#E1EBEF"/>
<path d="M45.046 45.1183C49.3843 43.1708 51.7547 35.979 51.7547 35.979C51.7547 35.979 44.6773 33.2861 40.4308 35.4266C39.5936 35.8486 38.9647 36.4002 38.4936 37.0126L37.9237 40.2446C37.7228 41.3835 37.7631 42.5372 38.0232 43.6383C39.286 44.7361 41.9688 46.4997 45.046 45.1183Z" fill="#C4D3D6"/>
<path d="M58.5577 32.2062L56.8713 41.7703C56.4572 44.1184 55.0659 46.1805 53.0436 47.4437L47.9918 50.5988C47.1107 51.1492 46.0569 51.3538 45.0338 51.1734L43.7239 50.9425C43.7239 50.9425 42.8668 50.7913 42.5964 50.7437L43.2481 51.5773C43.8878 52.3958 44.8081 52.9485 45.8312 53.1289L47.1411 53.3599L48.4509 53.5909C49.4741 53.7713 50.5277 53.5665 51.4089 53.0162L56.4607 49.861C58.4831 48.598 59.8743 46.5359 60.2883 44.1878L62.2852 32.8634L58.5577 32.2062Z" fill="#C4D3D6"/>
<path d="M52.4538 23.2301L49.6581 22.7373L48.3071 30.3991L51.1028 30.8921L53.8984 31.385L55.2494 23.7231L52.4538 23.2301Z" fill="#E1EBEF"/>
<path d="M53.5926 23.4309L52.698 28.5044C52.5973 29.0763 52.0519 29.458 51.48 29.3571L49.7199 29.0469L48.5809 28.846L48.3071 30.3991L51.1026 30.892L53.8983 31.385L55.2493 23.723L53.5926 23.4309Z" fill="#C4D3D6"/>
<path d="M55.1376 8.00953L52.342 7.51653L49.6582 22.737L52.4538 23.2299L55.2495 23.7229L57.9332 8.5024L55.1376 8.00953Z" fill="#FFD432"/>
<path d="M52.342 7.51665L52.0681 9.06978L54.9672 9.5809C55.5391 9.68178 55.921 10.227 55.8201 10.7989L54.0491 20.8423C53.9483 21.4142 53.403 21.796 52.8312 21.6952L49.9321 21.184L49.6582 22.737L55.2493 23.7229L57.9331 8.50253L52.342 7.51665Z" fill="#F4AC03"/>
<path d="M32 50V30.5" stroke="#522C16" stroke-width="1.875" stroke-miterlimit="10" stroke-linecap="round" stroke-linejoin="round"/>
<path d="M32 42.625C32 42.625 30.1302 39.5 26.75 38.25" stroke="#522C16" stroke-width="1.875" stroke-miterlimit="10" stroke-linecap="round" stroke-linejoin="round"/>
<path d="M32 44.5C32 44.5 33.8698 41.375 37.25 40.125" stroke="#522C16" stroke-width="1.875" stroke-miterlimit="10" stroke-linecap="round" stroke-linejoin="round"/>
<path d="M37.25 40.123L43 37.3748" stroke="#522C16" stroke-width="1.875" stroke-miterlimit="10" stroke-linecap="round" stroke-linejoin="round"/>
<path d="M26.75 38.248L21 35.4998" stroke="#522C16" stroke-width="1.875" stroke-miterlimit="10" stroke-linecap="round" stroke-linejoin="round"/>
<path d="M32 30.5V25.5" stroke="#522C16" stroke-width="1.875" stroke-miterlimit="10" stroke-linecap="round" stroke-linejoin="round"/>
<path d="M62.2569 6.38211L62.7499 3.58648L49.4966 1.24961L49.0037 4.04524L48.5107 6.84086L61.764 9.17773L62.2569 6.38211Z" fill="#64AEF7"/>
<path d="M60.7827 3.23998L60.3264 5.82848C60.2255 6.40035 59.6802 6.7821 59.1084 6.68135L48.8579 4.87385L48.511 6.8411L61.7641 9.17798L62.75 3.58685L60.7827 3.23998Z" fill="#0A86E3"/>
<path d="M52.25 62.75H62.75C62.75 59.8505 60.3995 57.5 57.5 57.5C56.8671 57.5 56.2604 57.6121 55.6985 57.8174C54.0599 55.2239 51.1696 53.5 47.875 53.5C47.377 53.5 46.8886 53.5405 46.412 53.6163C45.9335 50.8525 43.5255 48.75 40.625 48.75C38.4931 48.75 36.6265 49.8856 35.5969 51.5849C34.7056 50.611 33.4243 50 32 50C30.5758 50 29.2944 50.611 28.4031 51.5849C27.3735 49.8856 25.5069 48.75 23.375 48.75C20.4745 48.75 18.0665 50.8525 17.588 53.6163C17.1114 53.5405 16.623 53.5 16.125 53.5C12.8304 53.5 9.94012 55.2239 8.3015 57.8174C7.73962 57.6121 7.13287 57.5 6.5 57.5C3.6005 57.5 1.25 59.8505 1.25 62.75H11.75H52.25Z" fill="#A77554"/>
<path d="M57.5 57.5C56.8671 57.5 56.2604 57.6121 55.6985 57.8174C54.0599 55.2239 51.1696 53.5 47.875 53.5C47.377 53.5 46.8886 53.5405 46.412 53.6163C45.9335 50.8525 43.5255 48.75 40.625 48.75C38.5008 48.75 36.6405 49.8779 35.6086 51.567C38.4365 51.9051 40.8715 53.5193 42.3235 55.8174C42.8854 55.6121 43.4921 55.5 44.125 55.5C46.0845 55.5 47.7934 56.5735 48.6954 58.1646C49.3497 59.319 48.4845 60.75 47.1575 60.75H38.875H1.64537C1.39112 61.3665 1.25 62.0416 1.25 62.75H11.75H52.25H62.75C62.75 59.8505 60.3995 57.5 57.5 57.5Z" fill="#915431"/>
<path d="M52.125 59.5C52.125 59.9142 51.7893 60.25 51.375 60.25C50.9608 60.25 50.625 59.9142 50.625 59.5C50.625 59.0857 50.9608 58.75 51.375 58.75C51.7893 58.75 52.125 59.0857 52.125 59.5Z" fill="black"/>
<path d="M15.625 57.5C15.625 57.9142 15.2893 58.25 14.875 58.25C14.4608 58.25 14.125 57.9142 14.125 57.5C14.125 57.0857 14.4608 56.75 14.875 56.75C15.2893 56.75 15.625 57.0857 15.625 57.5Z" fill="black"/>
<path d="M26.75 38.2483C26.75 38.2483 23.5682 42.0085 19.6975 40.2709C15.7706 38.5082 13.625 31.9983 13.625 31.9983C13.625 31.9983 20.0312 29.5608 23.875 31.4983C27.6637 33.408 26.75 38.2483 26.75 38.2483Z" fill="#6EC030"/>
<path d="M23.875 31.4983C23.3511 31.2342 22.7795 31.0519 22.1831 30.9332C24.6115 33.1325 23.9033 36.8939 23.9033 36.8939C23.9033 36.8939 21.4329 39.8125 18.1975 39.3179C18.6641 39.7042 19.1643 40.0315 19.6975 40.2709C23.5683 42.0085 26.75 38.2483 26.75 38.2483C26.75 38.2483 27.6638 33.408 23.875 31.4983Z" fill="#378900"/>
<path d="M37.2501 40.1233C37.2501 40.1233 40.4318 43.8835 44.3026 42.1459C48.2294 40.3832 50.3751 33.8733 50.3751 33.8733C50.3751 33.8733 43.9688 31.4358 40.1251 33.3733C36.3363 35.283 37.2501 40.1233 37.2501 40.1233Z" fill="#6EC030"/>
<path d="M47.7993 33.1215C47.2183 34.6553 45.1809 39.4429 41.8993 40.916C40.6318 41.485 39.4383 41.4644 38.406 41.1794C39.6708 42.1384 41.8479 43.2473 44.3025 42.1454C48.2294 40.3827 50.375 33.8728 50.375 33.8728C50.375 33.8728 49.3153 33.4697 47.7993 33.1215Z" fill="#378900"/>
<path d="M32 30.5C32 30.5 36.75 29.3679 36.75 25.125C36.75 20.8906 32 15.75 32 15.75C32 15.75 27.25 20.8906 27.25 25.125C27.25 29.3679 32 30.5 32 30.5Z" fill="#6EC030"/>
<path d="M32.0578 15.8138C33.2258 17.6155 34.3751 19.9173 34.3751 22C34.3751 24.2413 33.0497 25.6145 31.7992 26.4114C30.4721 27.257 28.7634 27.2503 27.4381 26.4019C27.4268 26.3946 27.4154 26.3874 27.4041 26.38C28.2144 29.5951 32.0001 30.5 32.0001 30.5C32.0001 30.5 36.7501 29.3679 36.7501 25.125C36.7501 21.1654 32.5968 16.4136 32.0578 15.8138Z" fill="#378900"/>
<path d="M21.625 56.375C21.625 55.1324 22.6324 54.125 23.875 54.125C25.1176 54.125 26.125 55.1324 26.125 56.375" stroke="black" stroke-width="1.875" stroke-miterlimit="10" stroke-linecap="round" stroke-linejoin="round"/>
<path d="M36.125 58.75C36.125 57.5074 37.1324 56.5 38.375 56.5C39.6176 56.5 40.625 57.5074 40.625 58.75" stroke="black" stroke-width="1.875" stroke-miterlimit="10" stroke-linecap="round" stroke-linejoin="round"/>
<path d="M52.125 59.5C52.125 59.9142 51.7893 60.25 51.375 60.25C50.9608 60.25 50.625 59.9142 50.625 59.5C50.625 59.0857 50.9608 58.75 51.375 58.75C51.7893 58.75 52.125 59.0857 52.125 59.5Z" fill="black"/>
<path d="M15.625 57.5C15.625 57.9142 15.2893 58.25 14.875 58.25C14.4608 58.25 14.125 57.9142 14.125 57.5C14.125 57.0857 14.4608 56.75 14.875 56.75C15.2893 56.75 15.625 57.0857 15.625 57.5Z" fill="black"/>
</g>
</svg>
