<svg width="64" height="64" viewBox="0 0 64 64" fill="none" xmlns="http://www.w3.org/2000/svg">
<path d="M19.5 62.748H5C5 59.9867 7.23863 57.748 10 57.748H14.5C17.2615 57.748 19.5 59.9867 19.5 62.748Z" fill="#4C5378"/>
<path d="M14.5 56.498H13.6459V11.75C13.6459 11.0598 13.0861 10.5 12.3959 10.5C11.7056 10.5 11.1459 11.0598 11.1459 11.75V56.498H10C6.55375 56.498 3.75 59.3018 3.75 62.748C3.75 63.4383 4.30975 63.998 5 63.998H19.5C20.1903 63.998 20.75 63.4383 20.75 62.748C20.75 59.3018 17.9462 56.498 14.5 56.498ZM6.46425 61.498C6.98012 60.0429 8.37038 58.998 10 58.998H14.5C16.1296 58.998 17.5199 60.0429 18.0357 61.498H6.46425Z" fill="#4C5378"/>
<line x1="5.6001" y1="27" x2="5.6001" y2="15" stroke="#646464"/>
<path d="M34.5 19.502H60.25C61.6308 19.502 62.75 18.3827 62.75 17.002V3.75195C62.75 2.3712 61.6308 1.25195 60.25 1.25195H34.5C33.1193 1.25195 32 2.3712 32 3.75195V17.002C32 18.3826 33.1193 19.502 34.5 19.502Z" fill="#64AEF7"/>
<path d="M34.5 19.502H60.25C61.6308 19.502 62.75 18.3827 62.75 17.002V13.252L55.5625 6.06445L46.8125 14.8145L40.1562 8.1582L32 16.3145V17.002C32 18.3826 33.1193 19.502 34.5 19.502Z" fill="#C1EE92"/>
<path d="M17.625 1.25586H7.16663L1.25 16.6309H23.5416L17.625 1.25586Z" fill="#FF5D5D"/>
<path d="M58.1871 47.1417V34.4032C58.1871 31.8621 56.1271 29.8022 53.5861 29.8022H45.1251H34.8751H26.6642C24.1231 29.8022 22.0632 31.8622 22.0632 34.4032V47.1417H58.1871Z" fill="#FEDC75"/>
<path d="M53.6237 42.1414H26.6262V54.7464H53.6237V42.1414Z" fill="#FDC8A3"/>
<path d="M53.6237 42.1414H26.6262V47.1414H53.6237V42.1414Z" fill="#FEECB3"/>
<path d="M26.6261 54.7468H17.5V41.4761C17.5 38.956 19.5429 36.9131 22.063 36.9131C24.5831 36.9131 26.626 38.956 26.626 41.4761V54.7468H26.6261Z" fill="#FCB17E"/>
<path d="M62.75 54.7468H53.624V41.4761C53.624 38.956 55.6669 36.9131 58.187 36.9131C60.7071 36.9131 62.75 38.956 62.75 41.4761V54.7468Z" fill="#FCB17E"/>
<path d="M5.625 26.625C5.29488 26.625 4.97375 26.7586 4.74125 26.9912C4.50875 27.2239 4.375 27.5462 4.375 27.875C4.375 28.2038 4.50863 28.5263 4.74125 28.7586C4.97375 28.9913 5.29625 29.125 5.625 29.125C5.95375 29.125 6.27625 28.9913 6.50863 28.7586C6.74125 28.5263 6.875 28.2038 6.875 27.875C6.875 27.5462 6.74125 27.2237 6.50863 26.9912C6.27625 26.7586 5.95375 26.625 5.625 26.625Z" fill="#646464"/>
</svg>
