<svg width="64" height="64" viewBox="0 0 64 64" fill="none" xmlns="http://www.w3.org/2000/svg">
<path d="M53.8 26V51.5" stroke="#421A13" stroke-width="2"/>
<path d="M34.125 10.5H14.875C14.3227 10.5 13.875 10.9477 13.875 11.5V21C13.875 21.5523 14.3227 22 14.875 22H34.125C34.6773 22 35.125 21.5523 35.125 21V11.5C35.125 10.9477 34.6773 10.5 34.125 10.5Z" fill="#51C4F5"/>
<path d="M63.0625 54.125H0.9375V57.875H63.0625V54.125Z" fill="#4C6B7F"/>
<path d="M63.0625 54.125H59.3125V57.875H63.0625V54.125Z" fill="#3B5366"/>
<path d="M38.8478 44.625H10.4023C8.79938 44.625 7.5 43.3256 7.5 41.7228V32.5271C7.5 30.9244 8.79938 29.625 10.4023 29.625H38.8479C40.4506 29.625 41.75 30.9244 41.75 32.5272V41.7229C41.75 43.3256 40.4506 44.625 38.8478 44.625Z" fill="#FFB06A"/>
<path d="M38.8477 29.625H35.0977C36.7005 29.625 37.9999 30.9244 37.9999 32.5272V41.7229C37.9999 43.3256 36.7005 44.625 35.0977 44.625H38.8477C40.4505 44.625 41.7499 43.3256 41.7499 41.7228V32.5271C41.7499 30.9244 40.4505 29.625 38.8477 29.625Z" fill="#FF9242"/>
<path d="M59.915 26.125H47.415L49.9169 13.625H57.413L59.915 26.125Z" fill="#FFD65C"/>
<path d="M57.4132 13.625H53.7048L56.2068 26.125H59.9152L57.4132 13.625Z" fill="#FFB254"/>
<path d="M58.5413 54.125H49.0413V51.625C49.0413 50.9346 49.6009 50.375 50.2913 50.375H57.2913C57.9816 50.375 58.5413 50.9346 58.5413 51.625V54.125Z" fill="#CD795E"/>
<path d="M57.2913 50.375H53.5413C54.2316 50.375 54.7913 50.9346 54.7913 51.625V54.125H58.5413V51.625C58.5413 50.9346 57.9816 50.375 57.2913 50.375Z" fill="#BE6454"/>
<path d="M39.625 44.625H9.625V50.375H39.625V44.625Z" fill="#DE4747"/>
<path d="M9.625 50.375H5.125C4.84887 50.375 4.625 50.1511 4.625 49.875V39.125C4.625 38.8489 4.84887 38.625 5.125 38.625H9.125C9.40112 38.625 9.625 38.8489 9.625 39.125V50.375Z" fill="#C43F3F"/>
<path d="M44.125 50.375H39.625V39.125C39.625 38.8489 39.8489 38.625 40.125 38.625H44.125C44.4011 38.625 44.625 38.8489 44.625 39.125V49.875C44.625 50.1511 44.4011 50.375 44.125 50.375Z" fill="#C43F3F"/>
<path d="M41.5 50.375H7.75V54.125H41.5V50.375Z" fill="#CD795E"/>
<path d="M41.5 50.375H37.75V54.125H41.5V50.375Z" fill="#BE6454"/>
<path d="M41.625 8.9375H42.5625V9.875C42.5625 10.3927 42.9821 10.8125 43.5 10.8125C44.0179 10.8125 44.4375 10.3927 44.4375 9.875V8.9375H45.375C45.8929 8.9375 46.3125 8.51775 46.3125 8C46.3125 7.48225 45.8929 7.0625 45.375 7.0625H44.4375V6.125C44.4375 5.60725 44.0179 5.1875 43.5 5.1875C42.9821 5.1875 42.5625 5.60725 42.5625 6.125V7.0625H41.625C41.1071 7.0625 40.6875 7.48225 40.6875 8C40.6875 8.51775 41.1071 8.9375 41.625 8.9375Z" fill="#83D741"/>
<path d="M60.0315 34.0034C60.0315 33.4857 59.6119 33.0659 59.094 33.0659C58.5761 33.0659 58.1565 33.4857 58.1565 34.0034V34.9409H57.219C56.7011 34.9409 56.2815 35.3607 56.2815 35.8784C56.2815 36.3962 56.7011 36.8159 57.219 36.8159H58.1565V37.7534C58.1565 38.2712 58.5761 38.6909 59.094 38.6909C59.6119 38.6909 60.0315 38.2712 60.0315 37.7534V36.8159H60.969C61.4869 36.8159 61.9065 36.3962 61.9065 35.8784C61.9065 35.3607 61.4869 34.9409 60.969 34.9409H60.0315V34.0034Z" fill="#FAA473"/>
<path d="M3.90161 24.5435H4.83911V25.481C4.83911 25.9987 5.25886 26.4185 5.77661 26.4185C6.29436 26.4185 6.71411 25.9987 6.71411 25.481V24.5435H7.65161C8.16936 24.5435 8.58911 24.1237 8.58911 23.606C8.58911 23.0882 8.16936 22.6685 7.65161 22.6685H6.71411V21.731C6.71411 21.2132 6.29436 20.7935 5.77661 20.7935C5.25886 20.7935 4.83911 21.2132 4.83911 21.731V22.6685H3.90161C3.38386 22.6685 2.96411 23.0882 2.96411 23.606C2.96411 24.1237 3.38386 24.5435 3.90161 24.5435Z" fill="#58A1F8"/>
<path d="M15.75 34.5132C15.2322 34.5132 14.8125 34.9329 14.8125 35.4507V36.0132H14.25C13.7322 36.0132 13.3125 36.4329 13.3125 36.9507C13.3125 37.4684 13.7322 37.8882 14.25 37.8882H14.8125V38.4507C14.8125 38.9684 15.2322 39.3882 15.75 39.3882C16.2678 39.3882 16.6875 38.9684 16.6875 38.4507V37.8882H17.25C17.7677 37.8882 18.1875 37.4684 18.1875 36.9507C18.1875 36.4329 17.7677 36.0132 17.25 36.0132H16.6875V35.4507C16.6875 34.9329 16.2678 34.5132 15.75 34.5132Z" fill="#BE6454"/>
<path d="M33.5 34.5132C32.9821 34.5132 32.5625 34.9329 32.5625 35.4507V36.0132H32C31.4822 36.0132 31.0625 36.4329 31.0625 36.9507C31.0625 37.4684 31.4822 37.8882 32 37.8882H32.5625V38.4507C32.5625 38.9684 32.9821 39.3882 33.5 39.3882C34.0179 39.3882 34.4375 38.9684 34.4375 38.4507V37.8882H35C35.5179 37.8882 35.9375 37.4684 35.9375 36.9507C35.9375 36.4329 35.5179 36.0132 35 36.0132H34.4375V35.4507C34.4375 34.9329 34.0179 34.5132 33.5 34.5132Z" fill="#BE6454"/>
<path d="M24.625 34.5132C24.1072 34.5132 23.6875 34.9329 23.6875 35.4507V36.0132H23.125C22.6072 36.0132 22.1875 36.4329 22.1875 36.9507C22.1875 37.4684 22.6072 37.8882 23.125 37.8882H23.6875V38.4507C23.6875 38.9684 24.1072 39.3882 24.625 39.3882C25.1428 39.3882 25.5625 38.9684 25.5625 38.4507V37.8882H26.125C26.6427 37.8882 27.0625 37.4684 27.0625 36.9507C27.0625 36.4329 26.6427 36.0132 26.125 36.0132H25.5625V35.4507C25.5625 34.9329 25.1428 34.5132 24.625 34.5132Z" fill="#BE6454"/>
</svg>
