<svg width="64" height="64" viewBox="0 0 64 64" fill="none" xmlns="http://www.w3.org/2000/svg">
<path d="M24 47H10.7112C10.0921 47 9.48376 47.1621 8.94671 47.4701C8.40965 47.7781 7.96258 48.2214 7.64996 48.7557L7.48558 49.0368C7.04433 49.791 6.89709 50.6817 7.07211 51.5378C7.24713 52.394 7.73209 53.1554 8.43396 53.676C11.6733 56.0788 15.5996 57.376 19.6328 57.376H26.0828C27.943 57.376 29.7478 56.7432 31.2008 55.5817L24 47Z" fill="#E57C90"/>
<path d="M23.4678 20.3749V15.3749L22.0851 13.7328C21.908 13.5225 21.8052 13.2596 21.7926 12.985C21.78 12.7103 21.8583 12.4392 22.0153 12.2135L23.4017 10.2218L23.2471 9.32565C23.2158 9.14416 23.2523 8.95748 23.3498 8.80121C23.4473 8.64494 23.5988 8.52999 23.7756 8.47828L31.2381 6.29565L27.7466 18.8163L23.4625 21.4092L23.4678 19.7499" fill="#F0B78F"/>
<path d="M27.2178 30H31.3143C32.2982 30 33.2695 29.7786 34.1564 29.3524C35.0432 28.9261 35.8228 28.3058 36.4374 27.5375C37.0685 26.7487 37.5089 25.8248 37.7243 24.8378C37.9397 23.8508 37.9243 22.8274 37.6793 21.8474C37.3387 21.0471 37.2884 20.153 37.5372 19.3196C37.786 18.4863 38.3182 17.766 39.0418 17.2835L41.0148 16L33.3853 9L27.9678 17.5L27.2178 30Z" fill="#7A4922"/>
<path d="M26.968 35C26.8118 35.6248 26.797 36.2766 26.9246 36.9079C27.0522 37.5392 27.3189 38.1341 27.7055 38.6493L29.468 41L21.2408 47C19.0589 44.0245 17.5437 40.6138 16.7986 37L26.968 35Z" fill="#F0B78F"/>
<path d="M29.4678 41L30.6663 41.2C32.1536 41.4479 33.5611 42.044 34.774 42.9398C35.9868 43.8356 36.9706 45.0055 37.6448 46.3541L38.4678 48L50.4678 52L49.665 50.3942C48.2125 47.4891 47.3023 44.3434 46.9791 41.1115L46.4678 36L50.4678 35L58.0795 52.2599C58.4946 53.2011 58.633 54.2411 58.4786 55.2582C58.3242 56.2752 57.8833 57.2272 57.2076 58.0029C56.6659 58.6247 55.9893 59.1145 55.2295 59.4352C54.4697 59.7558 53.6468 59.8986 52.8233 59.8529L44.5955 59.3957C39.9027 59.135 35.3271 57.832 31.201 55.5814C28.0683 53.8727 25.2483 51.6447 22.8612 48.9924C22.2862 48.3535 21.7461 47.6893 21.2407 46.9997L29.4678 41Z" fill="#FF8AA0"/>
<path d="M46.4678 36L44.6915 34.8159C44.3151 34.5649 44.0064 34.2249 43.793 33.826C43.5795 33.4271 43.4678 32.9817 43.4678 32.5293C43.4678 32.1796 43.5345 31.8332 43.6644 31.5086L44.3868 30.1031C45.0972 28.721 45.4678 27.1893 45.4678 25.6353V24.6241C45.4678 24.1934 45.6389 23.7803 45.9435 23.4757C46.2481 23.1711 46.6613 23 47.092 23C47.4765 23 47.8485 23.1364 48.1418 23.3849C48.4351 23.6334 48.6308 23.9779 48.694 24.3571L50.4678 35L46.4678 36Z" fill="#F0B78F"/>
<path d="M24.0776 53.7163L20.9651 54.0788H18.0798C17.5013 54.0789 16.9334 54.2341 16.4353 54.5285C15.9373 54.8229 15.5273 55.2455 15.2483 55.7523L14.8953 56.3937C14.7368 56.6817 14.6705 57.0113 14.7053 57.3382C14.7401 57.665 14.8744 57.9733 15.09 58.2215C15.2407 58.395 15.427 58.5341 15.6362 58.6295C15.8454 58.7248 16.0726 58.7741 16.3025 58.7741H22.548C23.7196 58.7741 24.854 58.3624 25.753 57.611C25.9774 57.4233 26.1624 57.1931 26.2972 56.9335C26.4321 56.6739 26.5141 56.3901 26.5386 56.0986C26.5631 55.8071 26.5295 55.5137 26.4398 55.2352C26.3501 54.9568 26.2061 54.6989 26.0161 54.4765C25.7802 54.2004 25.4799 53.9867 25.1418 53.8541C24.8038 53.7215 24.4383 53.6742 24.0776 53.7163Z" fill="#F0B78F"/>
<path d="M21.1907 29.084C20.7195 28.3772 20.468 27.5467 20.468 26.6972V22.1111L16.8508 24.925C15.9453 25.6293 15.2434 26.5619 14.8173 27.6271C14.4053 28.6572 14.2653 29.7759 14.4108 30.8758C14.5563 31.9756 14.9823 33.0195 15.648 33.9071L16.468 35.0005C16.5521 35.673 16.6623 36.3396 16.7986 37.0005L26.968 35.0005L27.968 31.0005H24.7708C24.0624 31.0004 23.365 30.8255 22.7405 30.4911C22.1159 30.1568 21.5836 29.6734 21.1907 29.084Z" fill="#FF8AA0"/>
<path d="M43.4678 15L36.5131 5.4375C36.1894 4.99225 35.7649 4.62991 35.2743 4.38008C34.7838 4.13024 34.241 4 33.6905 4C33.0264 4.00001 32.376 4.18954 31.8158 4.54634C31.2556 4.90314 30.8089 5.41238 30.528 6.01425L25.1051 17.6346C24.6863 18.532 24.0603 19.317 23.2785 19.925L20.4678 22.1111V26.6973C20.4678 27.5467 20.7193 28.3772 21.1905 29.084C21.5834 29.6734 22.1158 30.1567 22.7403 30.4909C23.3649 30.8251 24.0623 31 24.7706 31H27.9678L29.4678 25C30.7719 23.0439 31.4678 20.7455 31.4678 18.3945V17L34.4678 12L39.4678 17L42.4678 21L45.6849 23.4125C45.777 23.4816 45.8838 23.5285 45.9969 23.5497C46.1101 23.5709 46.2266 23.5657 46.3374 23.5346C46.4483 23.5036 46.5505 23.4474 46.6361 23.3704C46.7217 23.2935 46.7885 23.1979 46.8313 23.091L48.2611 19.516C48.3209 19.3666 48.3311 19.2019 48.2901 19.0462C48.2491 18.8906 48.1591 18.7523 48.0334 18.6518L43.4678 15Z" fill="#F0B78F"/>
</svg>
